<mxfile host="Electron" agent="Mozilla/5.0 (Windows NT 10.0; Win64; x64) AppleWebKit/537.36 (KHTML, like Gecko) draw.io/27.0.9 Chrome/134.0.6998.205 Electron/35.4.0 Safari/537.36" version="27.0.9">
  <diagram name="Page-1" id="X6fpnIdgfL341lVE3vEU">
    <mxGraphModel dx="545" dy="331" grid="1" gridSize="10" guides="1" tooltips="1" connect="1" arrows="1" fold="1" page="1" pageScale="1" pageWidth="850" pageHeight="1100" math="0" shadow="0">
      <root>
        <mxCell id="0" />
        <mxCell id="1" parent="0" />
        <mxCell id="I-Vm67rDGlm1hhCqbeEx-8" value="&lt;p style=&quot;margin:0px;margin-top:4px;text-align:center;text-decoration:underline;&quot;&gt;&lt;b style=&quot;line-height: 170%;&quot;&gt;Estore&lt;/b&gt;&lt;/p&gt;&lt;hr size=&quot;1&quot; style=&quot;border-style:solid;&quot;&gt;&lt;p style=&quot;margin:0px;margin-left:8px;&quot;&gt;+ user&lt;br&gt;&lt;/p&gt;" style="verticalAlign=top;align=left;overflow=fill;html=1;whiteSpace=wrap;" parent="1" vertex="1">
          <mxGeometry x="330" y="40" width="160" height="60" as="geometry" />
        </mxCell>
        <mxCell id="I-Vm67rDGlm1hhCqbeEx-10" value="&lt;p style=&quot;margin:0px;margin-top:4px;text-align:center;text-decoration:underline;&quot;&gt;role&lt;/p&gt;&lt;hr size=&quot;1&quot; style=&quot;border-style:solid;&quot;&gt;&lt;p style=&quot;margin:0px;margin-left:8px;&quot;&gt;+ Customer&lt;/p&gt;&lt;p style=&quot;margin:0px;margin-left:8px;&quot;&gt;+ Sellers&lt;/p&gt;&lt;p style=&quot;margin:0px;margin-left:8px;&quot;&gt;+ Admin&lt;/p&gt;" style="verticalAlign=top;align=left;overflow=fill;html=1;whiteSpace=wrap;" parent="1" vertex="1">
          <mxGeometry x="490" y="160" width="160" height="90" as="geometry" />
        </mxCell>
        <mxCell id="I-Vm67rDGlm1hhCqbeEx-13" value="&lt;p style=&quot;margin:0px;margin-top:4px;text-align:center;text-decoration:underline;&quot;&gt;&lt;b&gt;Users&lt;/b&gt;&lt;/p&gt;&lt;hr size=&quot;1&quot; style=&quot;border-style:solid;&quot;&gt;&lt;p style=&quot;margin:0px;margin-left:8px;&quot;&gt;age : String&lt;br&gt;emailAddress : String&lt;br&gt;&lt;/p&gt;&lt;p style=&quot;margin:0px;margin-left:8px;&quot;&gt;homeAddress :&amp;nbsp;&lt;/p&gt;&lt;p style=&quot;margin:0px;margin-left:8px;&quot;&gt;name : String&lt;/p&gt;&lt;p style=&quot;margin:0px;margin-left:8px;&quot;&gt;password : int&lt;/p&gt;&lt;p style=&quot;margin:0px;margin-left:8px;&quot;&gt;phone : int&lt;/p&gt;&lt;p style=&quot;margin:0px;margin-left:8px;&quot;&gt;&lt;br&gt;&lt;/p&gt;" style="verticalAlign=top;align=left;overflow=fill;html=1;whiteSpace=wrap;" parent="1" vertex="1">
          <mxGeometry x="240" y="160" width="160" height="130" as="geometry" />
        </mxCell>
        <mxCell id="I-Vm67rDGlm1hhCqbeEx-14" value="&lt;b&gt;shoppingCart&lt;/b&gt;" style="swimlane;fontStyle=0;childLayout=stackLayout;horizontal=1;startSize=26;fillColor=none;horizontalStack=0;resizeParent=1;resizeParentMax=0;resizeLast=0;collapsible=1;marginBottom=0;whiteSpace=wrap;html=1;" parent="1" vertex="1">
          <mxGeometry x="40" y="450" width="140" height="52" as="geometry">
            <mxRectangle x="40" y="450" width="120" height="30" as="alternateBounds" />
          </mxGeometry>
        </mxCell>
        <mxCell id="I-Vm67rDGlm1hhCqbeEx-15" value="items :&amp;nbsp;" style="text;strokeColor=none;fillColor=none;align=left;verticalAlign=top;spacingLeft=4;spacingRight=4;overflow=hidden;rotatable=0;points=[[0,0.5],[1,0.5]];portConstraint=eastwest;whiteSpace=wrap;html=1;" parent="I-Vm67rDGlm1hhCqbeEx-14" vertex="1">
          <mxGeometry y="26" width="140" height="26" as="geometry" />
        </mxCell>
        <mxCell id="I-Vm67rDGlm1hhCqbeEx-20" value="&lt;b&gt;Customers&lt;/b&gt;" style="swimlane;fontStyle=0;childLayout=stackLayout;horizontal=1;startSize=26;fillColor=none;horizontalStack=0;resizeParent=1;resizeParentMax=0;resizeLast=0;collapsible=1;marginBottom=0;whiteSpace=wrap;html=1;" parent="1" vertex="1">
          <mxGeometry x="120" y="330" width="140" height="78" as="geometry">
            <mxRectangle x="120" y="330" width="100" height="30" as="alternateBounds" />
          </mxGeometry>
        </mxCell>
        <mxCell id="I-Vm67rDGlm1hhCqbeEx-21" value="billingInformation :&amp;nbsp;" style="text;strokeColor=none;fillColor=none;align=left;verticalAlign=top;spacingLeft=4;spacingRight=4;overflow=hidden;rotatable=0;points=[[0,0.5],[1,0.5]];portConstraint=eastwest;whiteSpace=wrap;html=1;" parent="I-Vm67rDGlm1hhCqbeEx-20" vertex="1">
          <mxGeometry y="26" width="140" height="26" as="geometry" />
        </mxCell>
        <mxCell id="I-Vm67rDGlm1hhCqbeEx-22" value="shoppngCart" style="text;strokeColor=none;fillColor=none;align=left;verticalAlign=top;spacingLeft=4;spacingRight=4;overflow=hidden;rotatable=0;points=[[0,0.5],[1,0.5]];portConstraint=eastwest;whiteSpace=wrap;html=1;" parent="I-Vm67rDGlm1hhCqbeEx-20" vertex="1">
          <mxGeometry y="52" width="140" height="26" as="geometry" />
        </mxCell>
        <mxCell id="I-Vm67rDGlm1hhCqbeEx-24" value="&lt;p style=&quot;margin:0px;margin-top:4px;text-align:center;text-decoration:underline;&quot;&gt;&lt;b&gt;Items&lt;/b&gt;&lt;/p&gt;&lt;hr size=&quot;1&quot; style=&quot;border-style:solid;&quot;&gt;&lt;p style=&quot;margin:0px;margin-left:8px;&quot;&gt;quality : int&lt;br&gt;product : product&lt;br&gt;&lt;/p&gt;" style="verticalAlign=top;align=left;overflow=fill;html=1;whiteSpace=wrap;" parent="1" vertex="1">
          <mxGeometry x="30" y="600" width="160" height="90" as="geometry" />
        </mxCell>
        <mxCell id="I-Vm67rDGlm1hhCqbeEx-25" value="&lt;p style=&quot;margin:0px;margin-top:4px;text-align:center;text-decoration:underline;&quot;&gt;&lt;b&gt;Product&lt;/b&gt;&lt;/p&gt;&lt;hr size=&quot;1&quot; style=&quot;border-style:solid;&quot;&gt;&lt;p style=&quot;margin:0px;margin-left:8px;&quot;&gt;productId : int&lt;/p&gt;&lt;p style=&quot;margin:0px;margin-left:8px;&quot;&gt;productName : String&lt;br&gt;price : int&lt;/p&gt;&lt;p style=&quot;margin:0px;margin-left:8px;&quot;&gt;productDescription : String&lt;/p&gt;&lt;p style=&quot;margin:0px;margin-left:8px;&quot;&gt;productCategory :&amp;nbsp;&lt;span style=&quot;background-color: transparent; color: light-dark(rgb(0, 0, 0), rgb(255, 255, 255));&quot;&gt;productCategory&lt;/span&gt;&lt;span style=&quot;background-color: transparent; color: light-dark(rgb(0, 0, 0), rgb(255, 255, 255));&quot;&gt;&amp;nbsp;&lt;/span&gt;&lt;/p&gt;&lt;p style=&quot;margin:0px;margin-left:8px;&quot;&gt;&lt;br&gt;&lt;/p&gt;" style="verticalAlign=top;align=left;overflow=fill;html=1;whiteSpace=wrap;" parent="1" vertex="1">
          <mxGeometry x="20" y="760" width="200" height="110" as="geometry" />
        </mxCell>
        <mxCell id="I-Vm67rDGlm1hhCqbeEx-26" value="&lt;p style=&quot;margin:0px;margin-top:4px;text-align:center;text-decoration:underline;&quot;&gt;&lt;b&gt;productCategory&lt;/b&gt;&lt;/p&gt;&lt;hr size=&quot;1&quot; style=&quot;border-style:solid;&quot;&gt;&lt;p style=&quot;margin:0px;margin-left:8px;&quot;&gt;Electronics&lt;/p&gt;&lt;p style=&quot;margin:0px;margin-left:8px;&quot;&gt;Groceries&lt;br&gt;&lt;/p&gt;&lt;p style=&quot;margin:0px;margin-left:8px;&quot;&gt;Utensils&lt;/p&gt;&lt;p style=&quot;margin:0px;margin-left:8px;&quot;&gt;Clothing&lt;/p&gt;" style="verticalAlign=top;align=left;overflow=fill;html=1;whiteSpace=wrap;" parent="1" vertex="1">
          <mxGeometry x="40" y="960" width="160" height="90" as="geometry" />
        </mxCell>
        <mxCell id="I-Vm67rDGlm1hhCqbeEx-27" value="&lt;p style=&quot;margin:0px;margin-top:4px;text-align:center;text-decoration:underline;&quot;&gt;&lt;b&gt;billingInformation&lt;/b&gt;&lt;/p&gt;&lt;hr size=&quot;1&quot; style=&quot;border-style:solid;&quot;&gt;&lt;p style=&quot;margin:0px;margin-left:8px;&quot;&gt;receiversPhoneNumber : int&lt;br&gt;receiverName : String&lt;br&gt;deliveryAddress :&lt;/p&gt;&lt;p style=&quot;margin:0px;margin-left:8px;&quot;&gt;creaditCardInformation&lt;/p&gt;" style="verticalAlign=top;align=left;overflow=fill;html=1;whiteSpace=wrap;" parent="1" vertex="1">
          <mxGeometry x="345" y="580" width="160" height="90" as="geometry" />
        </mxCell>
        <mxCell id="I-Vm67rDGlm1hhCqbeEx-28" value="&lt;p style=&quot;margin:0px;margin-top:4px;text-align:center;text-decoration:underline;&quot;&gt;&lt;b&gt;creditCardInformation&lt;/b&gt;&lt;/p&gt;&lt;hr size=&quot;1&quot; style=&quot;border-style:solid;&quot;&gt;&lt;p style=&quot;margin:0px;margin-left:8px;&quot;&gt;cardCvv : int&lt;/p&gt;&lt;p style=&quot;margin:0px;margin-left:8px;&quot;&gt;cardExpirationYear : int&lt;br&gt;cardExpirationMonth : int&lt;br&gt;creaditCardNumber : int&lt;/p&gt;&lt;p style=&quot;margin:0px;margin-left:8px;&quot;&gt;nameOnCard : String&lt;/p&gt;&lt;p style=&quot;margin:0px;margin-left:8px;&quot;&gt;cardType : cardType&lt;/p&gt;" style="verticalAlign=top;align=left;overflow=fill;html=1;whiteSpace=wrap;" parent="1" vertex="1">
          <mxGeometry x="370" y="750" width="180" height="140" as="geometry" />
        </mxCell>
        <mxCell id="I-Vm67rDGlm1hhCqbeEx-33" value="&lt;p style=&quot;margin:0px;margin-top:4px;text-align:center;text-decoration:underline;&quot;&gt;&lt;b&gt;cardType&lt;/b&gt;&lt;/p&gt;&lt;hr size=&quot;1&quot; style=&quot;border-style:solid;&quot;&gt;&lt;p style=&quot;margin:0px;margin-left:8px;&quot;&gt;+ MASTER CARD&lt;br&gt;+ VISA CARD&lt;br&gt;+ VERVE&lt;/p&gt;&lt;p style=&quot;margin:0px;margin-left:8px;&quot;&gt;&lt;br&gt;&lt;/p&gt;" style="verticalAlign=top;align=left;overflow=fill;html=1;whiteSpace=wrap;" parent="1" vertex="1">
          <mxGeometry x="390" y="950" width="160" height="90" as="geometry" />
        </mxCell>
        <mxCell id="I-Vm67rDGlm1hhCqbeEx-38" value="&lt;p style=&quot;margin:0px;margin-top:4px;text-align:center;text-decoration:underline;&quot;&gt;&lt;b&gt;Address&lt;/b&gt;&lt;/p&gt;&lt;hr size=&quot;1&quot; style=&quot;border-style:solid;&quot;&gt;&lt;p style=&quot;margin:0px;margin-left:8px;&quot;&gt;- cityName : String&lt;br&gt;- countryName : String&lt;br&gt;- houseNumber : int&lt;/p&gt;&lt;p style=&quot;margin:0px;margin-left:8px;&quot;&gt;- street : String&lt;/p&gt;&lt;p style=&quot;margin:0px;margin-left:8px;&quot;&gt;- state : String&lt;/p&gt;" style="verticalAlign=top;align=left;overflow=fill;html=1;whiteSpace=wrap;" parent="1" vertex="1">
          <mxGeometry x="480" y="320" width="140" height="130" as="geometry" />
        </mxCell>
        <mxCell id="I-Vm67rDGlm1hhCqbeEx-42" value="" style="endArrow=classic;html=1;rounded=0;exitX=0.5;exitY=1;exitDx=0;exitDy=0;entryX=0.5;entryY=0;entryDx=0;entryDy=0;" parent="1" source="I-Vm67rDGlm1hhCqbeEx-8" target="I-Vm67rDGlm1hhCqbeEx-13" edge="1">
          <mxGeometry width="50" height="50" relative="1" as="geometry">
            <mxPoint x="440" y="320" as="sourcePoint" />
            <mxPoint x="490" y="270" as="targetPoint" />
          </mxGeometry>
        </mxCell>
        <mxCell id="I-Vm67rDGlm1hhCqbeEx-43" value="" style="endArrow=classic;html=1;rounded=0;entryX=0;entryY=0.5;entryDx=0;entryDy=0;exitX=1;exitY=0.615;exitDx=0;exitDy=0;exitPerimeter=0;" parent="1" source="I-Vm67rDGlm1hhCqbeEx-13" target="I-Vm67rDGlm1hhCqbeEx-10" edge="1">
          <mxGeometry width="50" height="50" relative="1" as="geometry">
            <mxPoint x="400" y="310" as="sourcePoint" />
            <mxPoint x="450" y="260" as="targetPoint" />
          </mxGeometry>
        </mxCell>
        <mxCell id="I-Vm67rDGlm1hhCqbeEx-44" value="" style="endArrow=classic;html=1;rounded=0;entryX=0.5;entryY=0;entryDx=0;entryDy=0;exitX=0.75;exitY=1;exitDx=0;exitDy=0;" parent="1" source="I-Vm67rDGlm1hhCqbeEx-13" target="I-Vm67rDGlm1hhCqbeEx-38" edge="1">
          <mxGeometry width="50" height="50" relative="1" as="geometry">
            <mxPoint x="300" y="330" as="sourcePoint" />
            <mxPoint x="350" y="280" as="targetPoint" />
          </mxGeometry>
        </mxCell>
        <mxCell id="I-Vm67rDGlm1hhCqbeEx-45" value="" style="endArrow=classic;html=1;rounded=0;exitX=0.45;exitY=1.023;exitDx=0;exitDy=0;exitPerimeter=0;entryX=0.5;entryY=0;entryDx=0;entryDy=0;" parent="1" source="I-Vm67rDGlm1hhCqbeEx-13" target="I-Vm67rDGlm1hhCqbeEx-20" edge="1">
          <mxGeometry width="50" height="50" relative="1" as="geometry">
            <mxPoint x="300" y="330" as="sourcePoint" />
            <mxPoint x="350" y="280" as="targetPoint" />
          </mxGeometry>
        </mxCell>
        <mxCell id="I-Vm67rDGlm1hhCqbeEx-47" style="edgeStyle=orthogonalEdgeStyle;rounded=0;orthogonalLoop=1;jettySize=auto;html=1;exitX=1;exitY=0.5;exitDx=0;exitDy=0;entryX=0.4;entryY=-0.022;entryDx=0;entryDy=0;entryPerimeter=0;" parent="1" source="I-Vm67rDGlm1hhCqbeEx-21" target="I-Vm67rDGlm1hhCqbeEx-27" edge="1">
          <mxGeometry relative="1" as="geometry" />
        </mxCell>
        <mxCell id="I-Vm67rDGlm1hhCqbeEx-48" value="" style="endArrow=classic;html=1;rounded=0;exitX=0.429;exitY=1.077;exitDx=0;exitDy=0;exitPerimeter=0;entryX=0.5;entryY=0;entryDx=0;entryDy=0;" parent="1" source="I-Vm67rDGlm1hhCqbeEx-22" target="I-Vm67rDGlm1hhCqbeEx-14" edge="1">
          <mxGeometry width="50" height="50" relative="1" as="geometry">
            <mxPoint x="300" y="430" as="sourcePoint" />
            <mxPoint x="350" y="380" as="targetPoint" />
          </mxGeometry>
        </mxCell>
        <mxCell id="I-Vm67rDGlm1hhCqbeEx-49" value="" style="endArrow=classic;html=1;rounded=0;exitX=0.407;exitY=1.038;exitDx=0;exitDy=0;exitPerimeter=0;entryX=0.5;entryY=0;entryDx=0;entryDy=0;" parent="1" source="I-Vm67rDGlm1hhCqbeEx-15" target="I-Vm67rDGlm1hhCqbeEx-24" edge="1">
          <mxGeometry width="50" height="50" relative="1" as="geometry">
            <mxPoint x="300" y="580" as="sourcePoint" />
            <mxPoint x="350" y="530" as="targetPoint" />
          </mxGeometry>
        </mxCell>
        <mxCell id="I-Vm67rDGlm1hhCqbeEx-50" value="" style="endArrow=classic;html=1;rounded=0;entryX=0.5;entryY=0;entryDx=0;entryDy=0;exitX=0.5;exitY=1;exitDx=0;exitDy=0;" parent="1" source="I-Vm67rDGlm1hhCqbeEx-24" target="I-Vm67rDGlm1hhCqbeEx-25" edge="1">
          <mxGeometry width="50" height="50" relative="1" as="geometry">
            <mxPoint x="300" y="700" as="sourcePoint" />
            <mxPoint x="350" y="650" as="targetPoint" />
          </mxGeometry>
        </mxCell>
        <mxCell id="I-Vm67rDGlm1hhCqbeEx-51" value="" style="endArrow=classic;html=1;rounded=0;entryX=0.5;entryY=0;entryDx=0;entryDy=0;exitX=0.5;exitY=1;exitDx=0;exitDy=0;" parent="1" source="I-Vm67rDGlm1hhCqbeEx-25" target="I-Vm67rDGlm1hhCqbeEx-26" edge="1">
          <mxGeometry width="50" height="50" relative="1" as="geometry">
            <mxPoint x="310" y="840" as="sourcePoint" />
            <mxPoint x="220" y="920" as="targetPoint" />
          </mxGeometry>
        </mxCell>
        <mxCell id="I-Vm67rDGlm1hhCqbeEx-52" value="" style="endArrow=classic;html=1;rounded=0;entryX=0.5;entryY=0;entryDx=0;entryDy=0;exitX=0.5;exitY=1;exitDx=0;exitDy=0;" parent="1" source="I-Vm67rDGlm1hhCqbeEx-27" target="I-Vm67rDGlm1hhCqbeEx-28" edge="1">
          <mxGeometry width="50" height="50" relative="1" as="geometry">
            <mxPoint x="410" y="690" as="sourcePoint" />
            <mxPoint x="360" y="640" as="targetPoint" />
          </mxGeometry>
        </mxCell>
        <mxCell id="I-Vm67rDGlm1hhCqbeEx-53" value="" style="endArrow=classic;html=1;rounded=0;exitX=0.5;exitY=1;exitDx=0;exitDy=0;entryX=0.5;entryY=0;entryDx=0;entryDy=0;" parent="1" source="I-Vm67rDGlm1hhCqbeEx-28" target="I-Vm67rDGlm1hhCqbeEx-33" edge="1">
          <mxGeometry width="50" height="50" relative="1" as="geometry">
            <mxPoint x="310" y="980" as="sourcePoint" />
            <mxPoint x="360" y="930" as="targetPoint" />
          </mxGeometry>
        </mxCell>
      </root>
    </mxGraphModel>
  </diagram>
</mxfile>
